<svg xmlns="http://www.w3.org/2000/svg" viewBox="0 0 128 128">
  <path fill="#00acd7" d="M20.3 53.1c-.2 0-.3-.1-.2-.3l1-1.3c.1-.1.3-.2.5-.2h17.2c.2 0 .3.2.2.3l-.8 1.2c-.1.2-.3.3-.5.3l-17.4.0zM10.7 58.6c-.2 0-.3-.1-.2-.3l1-1.3c.1-.1.3-.2.5-.2h22c.2 0 .3.1.2.3l-.4 1.1c0 .2-.2.3-.4.3l-22.7.1zM25.2 64c-.2 0-.3-.2-.2-.3l.6-1.2c.1-.2.3-.3.5-.3h9.6c.2 0 .3.1.3.3l-.1 1.1c0 .2-.2.3-.4.3h-10.3zM72.8 51.2c-3.5.9-5.9 1.5-9.4 2.4-.8.2-.9.3-1.6-.5-.8-.9-1.4-1.5-2.5-2-3.4-1.7-6.7-1.2-9.8.8-3.6 2.4-5.5 5.9-5.4 10.2.1 4.2 3 7.6 7.1 8.3 3.5.6 6.6-.4 9.2-2.8.5-.5 1-1.1 1.6-1.8H53.4c-1.1 0-1.4-.7-1-1.6.7-1.7 2-4.5 2.7-5.9.2-.3.6-.8 1.2-.8h16.7c-.1 1.3-.1 2.6-.3 3.9-.6 3.5-2 6.7-4.2 9.5-3.6 4.6-8.3 7.5-14.2 8.2-4.9.6-9.5-.2-13.5-3.1-3.6-2.6-5.7-6.2-6.2-10.6-.6-5.3.9-10.1 4-14.3 3.3-4.4 7.7-7.2 13.1-8.2 4.4-.8 8.6-.4 12.4 1.9 2.5 1.5 4.3 3.6 5.6 6.1.3.5.1.7-.5.9z"/>
  <path fill="#00acd7" d="M99.3 75.3c-4.5-.1-8.6-1.3-12.1-4.2-3-2.5-4.8-5.6-5.3-9.5-.7-5.2.6-9.9 3.6-14 3.3-4.6 7.8-7.3 13.4-7.9 4.9-.5 9.4.4 13.2 3.4 3.5 2.7 5.5 6.4 5.9 10.9.5 5.9-1.2 10.9-5.1 15-3 3.2-6.8 5.2-11.2 5.9-1.5.3-2.9.4-2.4.4zm10.8-18.7c-.1-1-.1-1.8-.3-2.5-.9-3.8-4-6.2-7.9-6.1-3.8.1-6.8 2.1-8.1 5.7-1 2.8-1 5.6.2 8.4 1 2.4 3 3.9 5.5 4.3 3 .5 5.7-.2 7.8-2.4 1.7-1.8 2.5-4 2.8-7.4z"/>
</svg>
