<svg xmlns="http://www.w3.org/2000/svg" viewBox="0 0 128 128">
  <path fill="#f74c00" d="M62.8 1.4c.5 0 1 0 1.5.1.5 0 1-.1 1.5-.1 1.5.4 2.6 1.6 3.5 2.9.9 1.3 1.6 2.7 2.4 4 .6 1 1.5 1.6 2.6 1.8 3.4.5 6.6 1.6 9.5 3.4 1 .6 1.8.5 2.8.1 1.4-.6 2.7-1.4 4.1-2 1.4-.6 2.9-1.1 4.4-.9 1.6.2 2.8 1 3.8 2.2 1.1 1.3 1.7 2.9 2 4.6.2 1.2-.1 2.3-.6 3.4-.6 1.3-1.4 2.5-2.1 3.7-.5.8-.5 1.6-.1 2.4 1.7 3.1 2.8 6.4 3.2 10 .1.9.6 1.6 1.3 2.1 1.2.9 2.5 1.6 3.8 2.4 1.3.8 2.4 1.8 3.2 3.2.8 1.4 1 2.9.5 4.5-.5 1.7-1.4 3.1-2.6 4.3-1 1-2.2 1.4-3.5 1.4-1.5 0-3-.2-4.4-.4-.9-.1-1.7.2-2.3.9-2.1 2.7-4.7 4.8-7.7 6.4-.9.5-1.3 1.2-1.4 2.2-.1 1.5-.1 3-.2 4.5-.1 1.5-.4 2.9-1.2 4.2-.9 1.4-2.1 2.2-3.7 2.5-1.8.4-3.6.1-5.2-.6-1.3-.6-2.4-1.5-3.4-2.6-.6-.7-1.3-1-2.2-1-3.4.2-6.7-.2-9.9-1.3-.9-.3-1.7-.1-2.4.5-1.2 1-2.4 1.9-3.7 2.7-1.3.8-2.7 1.4-4.3 1.4-1.6 0-3-.5-4.2-1.6-1.3-1.2-2.1-2.6-2.5-4.3-.3-1.2 0-2.3.4-3.4.5-1.4 1.2-2.6 2-3.9.5-.8.4-1.6 0-2.4-1.6-2.9-2.6-6.1-3.1-9.5-.1-.9-.6-1.6-1.3-2.1-1.2-.9-2.5-1.7-3.7-2.5-1.2-.8-2.3-1.8-3-3.2-.8-1.5-.9-3.1-.3-4.7.6-1.7 1.6-3.1 2.9-4.2.9-.8 2-1.2 3.2-1.2 1.5 0 3 .2 4.5.4.9.1 1.7-.2 2.3-.9 2-2.6 4.5-4.7 7.4-6.2.9-.5 1.4-1.2 1.5-2.3.1-1.5.2-3 .3-4.5.1-1.5.4-2.9 1.2-4.2.9-1.4 2.2-2.2 3.8-2.5 1.7-.3 3.4 0 4.9.7 1.4.6 2.6 1.5 3.6 2.7.6.7 1.3 1 2.2.9 3.2-.2 6.4.1 9.4 1.2 1 .4 1.8.2 2.5-.5 1.2-1.1 2.4-2 3.8-2.8 1.3-.8 2.8-1.3 4.3-1.3zm-.2 18.3c-1.2-.1-2.3 0-3.4.4-3.5 1.2-5.6 4.8-4.7 8.3.5 2 1.7 3.6 3.5 4.6 1.8 1.1 3.7 1.3 5.7.6 3.5-1.2 5.6-4.8 4.7-8.3-.8-3-3-5.1-5.8-5.6zm15.2 18.8l1.9 5.2c.2.5.5.9.9 1.2l4.8 2.9c.4.2.7.6.8 1l.6 5.5c0 .4-.1.9-.4 1.2l-3.6 4.2c-.3.4-.5.9-.5 1.4v5.5c0 .5.2 1 .5 1.4l3.6 4.2c.3.3.5.8.4 1.2l-.6 5.5c-.1.4-.4.8-.8 1l-4.8 2.9c-.4.3-.7.7-.9 1.2l-1.9 5.2c-.1.4-.4.8-.8 1l-5.2 2.1c-.5.2-1 .2-1.4 0l-5-2.3c-.4-.2-.9-.2-1.4-.1l-5.4 1.2c-.5.1-.9 0-1.3-.3l-4-3.9c-.4-.3-.8-.5-1.3-.5h-5.5c-.5 0-1 .2-1.3.5l-4 3.9c-.4.3-.8.4-1.3.3l-5.4-1.2c-.5-.1-1-.1-1.4.1l-5 2.3c-.5.2-1 .2-1.4 0l-5.2-2.1c-.4-.2-.7-.5-.8-1l-1.9-5.2c-.2-.5-.5-.9-.9-1.2l-4.8-2.9c-.4-.2-.7-.6-.8-1l-.6-5.5c0-.4.1-.9.4-1.2l3.6-4.2c.3-.4.5-.9.5-1.4v-5.5c0-.5-.2-1-.5-1.4l-3.6-4.2c-.3-.3-.5-.8-.4-1.2l.6-5.5c.1-.4.4-.8.8-1l4.8-2.9c.4-.3.7-.7.9-1.2l1.9-5.2c.1-.4.4-.8.8-1l5.2-2.1c.5-.2 1-.2 1.4 0l5 2.3c.4.2.9.2 1.4.1l5.4-1.2c.5-.1.9 0 1.3.3l4 3.9c.4.3.8.5 1.3.5h5.5c.5 0 1-.2 1.3-.5l4-3.9c.4-.3.8-.4 1.3-.3l5.4 1.2c.5.1 1 .1 1.4-.1l5-2.3c.5-.2 1-.2 1.4 0l5.2 2.1c.4.2.7.5.8 1z"/>
</svg>
