<svg xmlns="http://www.w3.org/2000/svg" viewBox="0 0 128 128">
  <rect fill="#3178c6" width="128" height="128" rx="10"/>
  <path fill="#fff" d="M82.9 89.7v10.2c1.7.9 3.6 1.5 5.8 1.9 2.2.5 4.4.7 6.8.7 2.3 0 4.5-.2 6.5-.7 2.1-.5 3.9-1.2 5.5-2.2 1.6-1 2.9-2.3 3.8-3.9.9-1.6 1.4-3.5 1.4-5.8 0-1.7-.3-3.1-.9-4.4-.6-1.3-1.4-2.4-2.5-3.4-1.1-1-2.4-1.9-4-2.7-1.6-.8-3.3-1.5-5.2-2.2-1.4-.5-2.6-1-3.6-1.5-1-.5-1.9-1-2.6-1.5-.7-.5-1.2-1.1-1.6-1.7-.4-.6-.5-1.3-.5-2.1 0-.7.2-1.4.5-2 .4-.6.9-1.1 1.5-1.5.7-.4 1.5-.7 2.4-1 .9-.2 2-.3 3.1-.3 .8 0 1.7.1 2.6.2.9.1 1.8.3 2.8.6 .9.3 1.8.6 2.6 1 .8.4 1.6.9 2.3 1.4v-9.6c-1.5-.6-3.1-1-4.9-1.3-1.8-.3-3.8-.4-6.1-.4-2.3 0-4.5.2-6.5.8-2 .5-3.8 1.3-5.3 2.4-1.5 1.1-2.7 2.4-3.6 4-0.9 1.6-1.3 3.5-1.3 5.6 0 2.9.8 5.3 2.5 7.3 1.7 2 4.2 3.6 7.6 5 1.4.5 2.8 1.1 4 1.6 1.2.5 2.3 1.1 3.2 1.6.9.6 1.6 1.2 2.1 1.9.5.7.8 1.5.8 2.4 0 .7-.1 1.3-.4 1.9-.3.6-.7 1-1.3 1.4-.6.4-1.3.7-2.2.9-.9.2-1.9.3-3.1.3-2 0-4-.4-5.9-1.1-1.9-.8-3.7-1.9-5.2-3.4zM69.4 68.8h-12v32.5h-10V68.8h-12v-8.3h34v8.3z"/>
</svg>
